<svg width="206" height="20" viewBox="0 0 206 20" fill="none" xmlns="http://www.w3.org/2000/svg">
<path d="M8.57342 19.1467L4.45342 4.49333V19.1467H0.253418V0.82666H7.08008L10.5868 13.96L14.1734 0.82666H20.9201V19.1467H16.7201V4.46666L12.6268 19.1467H8.56008H8.57342Z" fill="black"/>
<path d="M31.2799 0.82666C32.4532 0.82666 33.5599 0.906663 34.5732 1.08C35.5866 1.25333 36.4666 1.55999 37.2132 1.99999C37.9599 2.43999 38.5332 3.05333 38.9599 3.82666C39.3866 4.59999 39.5866 5.58666 39.5866 6.78666C39.5866 7.98666 39.3732 9 38.9599 9.77333C38.5332 10.5467 37.9599 11.16 37.2132 11.6C36.4666 12.04 35.5866 12.36 34.5732 12.5333C33.5599 12.7067 32.4532 12.8 31.2799 12.8H28.5466V19.1467H24.2266V0.82666H31.2799ZM28.5599 4.46666V9.15999H31.4132C31.9199 9.15999 32.3866 9.12 32.8266 9.05333C33.2666 8.98666 33.6532 8.86666 33.9732 8.69333C34.3066 8.52 34.5599 8.27999 34.7466 7.97333C34.9332 7.66666 35.0266 7.27999 35.0266 6.78666C35.0266 6.29333 34.9332 5.93333 34.7466 5.62666C34.5599 5.32 34.3066 5.08 33.9732 4.90666C33.6399 4.73333 33.2666 4.61333 32.8266 4.54666C32.3866 4.49333 31.9199 4.45333 31.4132 4.45333H28.5599V4.46666Z" fill="black"/>
<path d="M56.8 6.13341C56.5866 5.44007 56.16 4.90674 55.52 4.54674C54.8933 4.17341 54.1066 3.98675 53.1866 3.98675C52.3466 3.98675 51.6533 4.13341 51.1066 4.44008C50.56 4.74675 50.28 5.18674 50.28 5.76008C50.28 6.21341 50.48 6.60007 50.8666 6.92007C51.2533 7.24007 51.7733 7.46674 52.4133 7.60008L54.92 8.10675C55.6666 8.25341 56.4266 8.44008 57.2133 8.66674C58 8.88008 58.72 9.18674 59.3733 9.57341C60.0266 9.96008 60.56 10.4667 60.9733 11.0934C61.4 11.7201 61.6 12.5067 61.6 13.4667C61.6 14.4267 61.3733 15.2801 60.9333 16.0267C60.4933 16.7734 59.9066 17.4001 59.1866 17.9067C58.4666 18.4134 57.6533 18.8001 56.7333 19.0667C55.8133 19.3334 54.88 19.4667 53.92 19.4667C51.56 19.4667 49.6533 18.9201 48.1866 17.8134C46.72 16.7067 45.8266 15.1601 45.48 13.1734H49.7733C50.0133 14.1334 50.4933 14.8401 51.2266 15.2934C51.96 15.7467 52.8933 15.9734 54.0133 15.9734C54.3866 15.9734 54.76 15.9334 55.12 15.8667C55.4933 15.8001 55.8266 15.6934 56.1333 15.5334C56.44 15.3734 56.68 15.1734 56.8666 14.9334C57.0533 14.6801 57.1466 14.3601 57.1466 13.9734C57.1466 13.3867 56.8266 12.9201 56.2 12.6001C55.5733 12.2667 54.7466 12.0001 53.7333 11.7734L51.5066 11.3201C50.76 11.1734 50.0533 10.9601 49.36 10.6934C48.6666 10.4267 48.0666 10.0801 47.5466 9.65341C47.0266 9.22675 46.6133 8.72008 46.2933 8.12008C45.9866 7.52008 45.8266 6.81341 45.8266 5.98675C45.8266 5.06675 46.0533 4.25341 46.5066 3.56007C46.96 2.86674 47.5466 2.29341 48.28 1.84008C49 1.38674 49.8266 1.05341 50.7333 0.826742C51.64 0.613408 52.5466 0.493408 53.44 0.493408C54.3333 0.493408 55.2 0.600074 56.0533 0.800074C56.9066 1.00007 57.68 1.33341 58.36 1.78674C59.0533 2.24008 59.64 2.82675 60.12 3.53341C60.6 4.24008 60.92 5.09341 61.0667 6.10675H56.8V6.13341Z" fill="black"/>
<path d="M79.9468 0.82666V19.1467H75.6268V11.64H68.0934V19.1467H63.7734V0.82666H68.0934V7.82666H75.6268V0.82666H79.9468Z" fill="black"/>
<path d="M101.173 10C101.173 11.4267 100.947 12.7334 100.48 13.8934C100.013 15.0534 99.3733 16.0534 98.5333 16.88C97.6933 17.7067 96.6933 18.3467 95.5333 18.8C94.36 19.2534 93.08 19.48 91.68 19.48C90.28 19.48 88.9733 19.2534 87.8133 18.8C86.6533 18.3467 85.6533 17.7067 84.8133 16.88C83.9733 16.0534 83.3333 15.0667 82.8667 13.8934C82.4 12.7334 82.1733 11.44 82.1733 10C82.1733 8.56002 82.4 7.26669 82.8667 6.10669C83.3333 4.94669 83.9733 3.94669 84.8133 3.12002C85.6533 2.29335 86.64 1.65336 87.8133 1.20002C88.9733 0.746689 90.2667 0.52002 91.68 0.52002C93.0933 0.52002 94.36 0.746689 95.5333 1.20002C96.7067 1.65336 97.7067 2.29335 98.5333 3.12002C99.3733 3.94669 100.013 4.93336 100.48 6.10669C100.947 7.26669 101.173 8.56002 101.173 10ZM86.7467 10C86.7467 10.9734 86.88 11.8267 87.1333 12.56C87.4 13.2934 87.7467 13.9067 88.2 14.4C88.64 14.8934 89.1733 15.2667 89.76 15.52C90.36 15.7734 91 15.8934 91.6667 15.8934C92.3333 15.8934 92.9733 15.7734 93.5733 15.52C94.1733 15.2667 94.6933 14.8934 95.1333 14.4C95.5733 13.9067 95.9333 13.2934 96.2 12.56C96.4667 11.8267 96.5867 10.9734 96.5867 10C96.5867 9.02669 96.4533 8.17336 96.2 7.44002C95.9333 6.70669 95.5867 6.09335 95.1333 5.60002C94.6933 5.10669 94.16 4.73335 93.5733 4.48002C92.9733 4.22669 92.3333 4.10669 91.6667 4.10669C91 4.10669 90.36 4.22669 89.76 4.48002C89.16 4.73335 88.64 5.10669 88.2 5.60002C87.76 6.09335 87.4 6.70669 87.1333 7.44002C86.8667 8.17336 86.7467 9.02669 86.7467 10Z" fill="black"/>
<path d="M118.04 13.5333L120.333 0.82666H124.653L120.507 19.1467H115.853L113.08 6.23999L110.32 19.1467H105.693L101.493 0.82666H105.867L108.373 13.48L110.853 0.82666H115.32L118.027 13.5333H118.04Z" fill="black"/>
<path d="M133.587 12.2533H130.653V19.1467H126.333V0.82666H133.387C134.56 0.82666 135.667 0.906661 136.68 1.06666C137.693 1.22666 138.573 1.51999 139.32 1.94666C140.067 2.37333 140.64 2.96 141.067 3.69333C141.493 4.42666 141.693 5.36 141.693 6.48C141.693 7.82666 141.36 8.90666 140.68 9.72C140 10.5333 139.147 11.1333 138.107 11.5333L142.627 19.1333H137.547L133.573 12.24L133.587 12.2533ZM130.653 4.46666V8.61333H133.507C134.013 8.61333 134.493 8.58666 134.933 8.53333C135.373 8.48 135.76 8.38666 136.08 8.22666C136.4 8.07999 136.653 7.86666 136.84 7.6C137.027 7.33333 137.12 6.97333 137.12 6.53333C137.12 6.09333 137.027 5.77333 136.84 5.49333C136.653 5.22666 136.4 5.01333 136.08 4.86666C135.76 4.72 135.373 4.61333 134.933 4.54666C134.493 4.49333 134.013 4.45333 133.507 4.45333H130.653V4.46666Z" fill="black"/>
<path d="M162.24 10C162.24 11.4267 162.013 12.7334 161.547 13.8934C161.08 15.0534 160.44 16.0534 159.6 16.88C158.76 17.7067 157.76 18.3467 156.6 18.8C155.427 19.2534 154.147 19.48 152.747 19.48C151.347 19.48 150.04 19.2534 148.88 18.8C147.72 18.3467 146.72 17.7067 145.88 16.88C145.04 16.0534 144.4 15.0667 143.933 13.8934C143.467 12.7334 143.24 11.44 143.24 10C143.24 8.56002 143.467 7.26669 143.933 6.10669C144.4 4.94669 145.04 3.94669 145.88 3.12002C146.72 2.29335 147.707 1.65336 148.88 1.20002C150.04 0.746689 151.333 0.52002 152.747 0.52002C154.16 0.52002 155.427 0.746689 156.6 1.20002C157.773 1.65336 158.773 2.29335 159.6 3.12002C160.44 3.94669 161.08 4.93336 161.547 6.10669C162.013 7.26669 162.24 8.56002 162.24 10ZM147.813 10C147.813 10.9734 147.947 11.8267 148.2 12.56C148.467 13.2934 148.813 13.9067 149.267 14.4C149.707 14.8934 150.24 15.2667 150.827 15.52C151.427 15.7734 152.067 15.8934 152.733 15.8934C153.4 15.8934 154.04 15.7734 154.64 15.52C155.24 15.2667 155.76 14.8934 156.2 14.4C156.64 13.9067 157 13.2934 157.267 12.56C157.533 11.8267 157.653 10.9734 157.653 10C157.653 9.02669 157.52 8.17336 157.267 7.44002C157 6.70669 156.653 6.09335 156.2 5.60002C155.76 5.10669 155.227 4.73335 154.64 4.48002C154.04 4.22669 153.4 4.10669 152.733 4.10669C152.067 4.10669 151.427 4.22669 150.827 4.48002C150.227 4.73335 149.707 5.10669 149.267 5.60002C148.827 6.09335 148.467 6.70669 148.2 7.44002C147.933 8.17336 147.813 9.02669 147.813 10Z" fill="black"/>
<path d="M182.853 10C182.853 11.4267 182.627 12.7334 182.16 13.8934C181.693 15.0534 181.053 16.0534 180.213 16.88C179.373 17.7067 178.373 18.3467 177.213 18.8C176.04 19.2534 174.76 19.48 173.36 19.48C171.96 19.48 170.653 19.2534 169.493 18.8C168.333 18.3467 167.333 17.7067 166.493 16.88C165.653 16.0534 165.013 15.0667 164.547 13.8934C164.08 12.7334 163.853 11.44 163.853 10C163.853 8.56002 164.08 7.26669 164.547 6.10669C165.013 4.94669 165.653 3.94669 166.493 3.12002C167.333 2.29335 168.32 1.65336 169.493 1.20002C170.653 0.746689 171.947 0.52002 173.36 0.52002C174.773 0.52002 176.04 0.746689 177.213 1.20002C178.387 1.65336 179.387 2.29335 180.213 3.12002C181.053 3.94669 181.693 4.93336 182.16 6.10669C182.627 7.26669 182.853 8.56002 182.853 10ZM168.427 10C168.427 10.9734 168.56 11.8267 168.813 12.56C169.08 13.2934 169.427 13.9067 169.88 14.4C170.32 14.8934 170.853 15.2667 171.44 15.52C172.04 15.7734 172.68 15.8934 173.347 15.8934C174.013 15.8934 174.653 15.7734 175.253 15.52C175.853 15.2667 176.373 14.8934 176.813 14.4C177.253 13.9067 177.613 13.2934 177.88 12.56C178.147 11.8267 178.267 10.9734 178.267 10C178.267 9.02669 178.133 8.17336 177.88 7.44002C177.613 6.70669 177.267 6.09335 176.813 5.60002C176.373 5.10669 175.84 4.73335 175.253 4.48002C174.653 4.22669 174.013 4.10669 173.347 4.10669C172.68 4.10669 172.04 4.22669 171.44 4.48002C170.84 4.73335 170.32 5.10669 169.88 5.60002C169.44 6.09335 169.08 6.70669 168.813 7.44002C168.547 8.17336 168.427 9.02669 168.427 10Z" fill="black"/>
<path d="M193.387 19.1467L189.267 4.49333V19.1467H185.067V0.82666H191.893L195.4 13.96L198.987 0.82666H205.733V19.1467H201.533V4.46666L197.44 19.1467H193.373H193.387Z" fill="black"/>
</svg>
